<svg width="156" height="32" viewBox="0 0 156 32" fill="none" xmlns="http://www.w3.org/2000/svg">
<path d="M7.66363 31.152C7.40763 31.024 7.05563 30.912 6.60763 30.816C6.15963 30.752 5.75963 30.672 5.40763 30.576C4.70363 30.32 4.17563 29.856 3.82363 29.184C3.50363 28.512 3.34363 27.696 3.34363 26.736C3.34363 25.456 3.55163 24 3.96763 22.368C4.41563 20.736 4.97563 19.056 5.64763 17.328C6.35163 15.568 7.08763 13.888 7.85563 12.288C8.62363 10.688 9.32763 9.264 9.96763 8.016C10.6396 6.768 11.1516 5.84 11.5036 5.232C10.4476 5.392 9.29562 5.648 8.04762 6C6.83162 6.32 5.79162 6.72 4.92762 7.2C4.06362 7.68 3.63162 8.256 3.63162 8.928C3.63162 9.568 4.03162 10.192 4.83162 10.8C5.08762 11.024 5.21562 11.232 5.21562 11.424C5.21562 11.712 5.07162 11.888 4.78362 11.952C4.68762 11.984 4.54362 12 4.35162 12C3.77562 12 3.21562 11.776 2.67162 11.328C2.15962 10.88 1.72762 10.288 1.37562 9.552C1.05562 8.784 0.895625 7.984 0.895625 7.152C0.895624 5.936 1.35962 4.736 2.28762 3.552C3.21562 2.368 4.84762 1.552 7.18362 1.104C7.75962 0.975999 8.89562 0.847999 10.5916 0.719999C12.2876 0.559999 14.1276 0.479999 16.1116 0.479999C17.8716 0.479999 19.5676 0.575999 21.1996 0.767998C22.8636 0.959997 24.2236 1.296 25.2796 1.776C26.3676 2.256 26.9116 2.944 26.9116 3.84C26.9116 4.064 26.8956 4.336 26.8636 4.656C26.8316 4.976 26.8156 5.232 26.8156 5.424L26.8156 5.52C26.8156 5.648 26.7676 5.728 26.6716 5.76C26.5756 5.792 26.4956 5.744 26.4316 5.616C26.2716 5.36 25.8076 5.152 25.0396 4.992C24.3036 4.832 23.3596 4.72 22.2076 4.656C21.0876 4.592 19.8716 4.576 18.5596 4.608C17.7916 5.792 16.8956 7.264 15.8716 9.024C14.8796 10.784 13.8716 12.704 12.8476 14.784C11.9516 16.64 11.1196 18.528 10.3516 20.448C9.58363 22.336 8.95963 24.08 8.47963 25.68C8.03163 27.248 7.80763 28.512 7.80763 29.472C7.80763 30.048 7.90363 30.464 8.09563 30.72C8.15963 30.784 8.19163 30.88 8.19163 31.008C8.19163 31.232 8.01563 31.28 7.66363 31.152ZM19.9475 30.288C18.3795 30.288 17.2755 29.936 16.6355 29.232C16.0275 28.496 15.7235 27.584 15.7235 26.496C15.7235 25.344 15.9315 24.112 16.3475 22.8C16.7955 21.456 17.2915 20.224 17.8355 19.104C18.4115 17.952 18.8595 17.072 19.1795 16.464C20.4915 14.032 21.9955 12.256 23.6915 11.136C25.4195 10.016 27.3235 9.456 29.4035 9.456C30.1395 9.456 31.0035 9.488 31.9955 9.552C32.9875 9.616 33.9955 9.648 35.0195 9.648C35.5315 9.648 36.0275 9.632 36.5075 9.6C36.9875 9.568 37.4515 9.552 37.8995 9.552L38.0915 9.552C38.6355 9.552 38.9075 9.648 38.9075 9.84C38.9075 9.968 38.7155 10.112 38.3315 10.272C37.9155 10.432 37.4195 10.976 36.8435 11.904C36.2675 12.8 35.6755 13.888 35.0675 15.168C34.4595 16.448 33.8835 17.744 33.3395 19.056C33.0515 19.792 32.6675 20.784 32.1875 22.032C31.7075 23.248 31.3555 24.496 31.1315 25.776C31.0995 26 31.0675 26.208 31.0355 26.4C31.0355 26.56 31.0355 26.72 31.0355 26.88C31.0355 27.68 31.2435 28.08 31.6595 28.08C32.1715 28.08 32.6995 27.808 33.2435 27.264C33.7875 26.72 34.3155 26.064 34.8275 25.296C35.2755 24.624 35.7235 23.872 36.1715 23.04C36.6195 22.208 37.0195 21.44 37.3715 20.736C37.7235 20 37.9795 19.488 38.1395 19.2C38.2355 19.008 38.3635 18.912 38.5235 18.912C38.7155 18.912 38.8915 19.056 39.0515 19.344C39.2115 19.6 39.2275 19.856 39.0995 20.112C38.4915 21.296 37.8355 22.56 37.1315 23.904C36.4275 25.248 35.6595 26.464 34.8275 27.552C33.4195 29.376 31.7875 30.288 29.9315 30.288C28.5235 30.288 27.4835 29.856 26.8115 28.992C26.1715 28.128 25.8515 27.088 25.8515 25.872C25.8515 25.328 25.8995 24.8 25.9955 24.288C25.6435 24.864 25.2115 25.616 24.6995 26.544C24.1875 27.44 23.5955 28.256 22.9235 28.992C22.2835 29.728 21.5635 30.144 20.7635 30.24C20.6355 30.24 20.5075 30.24 20.3795 30.24C20.2515 30.272 20.1075 30.288 19.9475 30.288ZM21.7235 27.84C22.0435 27.84 22.4595 27.552 22.9715 26.976C23.5155 26.4 24.0595 25.68 24.6035 24.816C25.1795 23.92 25.6755 23.024 26.0915 22.128C26.1875 21.872 26.4115 21.328 26.7635 20.496C27.1475 19.632 27.5635 18.64 28.0115 17.52C28.4915 16.368 28.9715 15.216 29.4515 14.064C29.9315 12.912 30.3475 11.904 30.6995 11.04C30.7315 10.944 30.7475 10.832 30.7475 10.704C30.7475 10.512 30.6515 10.416 30.4595 10.416C30.2675 10.416 30.0435 10.496 29.7875 10.656C29.5315 10.784 29.2915 10.928 29.0675 11.088C28.6515 11.408 28.1075 12.08 27.4355 13.104C26.7955 14.096 26.1075 15.264 25.3715 16.608C24.6675 17.952 23.9955 19.328 23.3555 20.736C22.7155 22.112 22.1875 23.376 21.7715 24.528C21.3875 25.648 21.1955 26.496 21.1955 27.072C21.1955 27.584 21.3715 27.84 21.7235 27.84ZM42.2124 30.336C40.2604 30.336 38.6444 29.76 37.3644 28.608C36.0844 27.456 35.4444 25.856 35.4444 23.808C35.4444 23.104 35.5244 22.368 35.6844 21.6C35.8444 20.832 36.1004 20.176 36.4524 19.632C36.8044 19.088 37.2684 18.816 37.8444 18.816C38.1964 18.816 38.4524 18.928 38.6124 19.152C38.9964 18.416 39.4124 17.68 39.8604 16.944C40.3084 16.208 40.7564 15.456 41.2044 14.688C41.7164 13.856 42.3084 12.944 42.9804 11.952C43.6844 10.928 44.4844 10.032 45.3804 9.264C46.2764 8.464 47.2524 8.016 48.3084 7.92C48.4364 7.888 48.5644 7.872 48.6924 7.872C48.8524 7.872 48.9964 7.872 49.1244 7.872C49.4764 7.872 49.8444 7.888 50.2284 7.92C50.6124 7.952 50.9004 7.984 51.0924 8.016C51.1564 8.048 51.2044 8.144 51.2364 8.304C51.2684 8.464 51.1884 8.544 50.9964 8.544C50.8684 8.544 50.6124 8.64 50.2284 8.832C49.8444 8.992 49.6204 9.392 49.5564 10.032C49.4924 12.272 49.3484 14.512 49.1244 16.752C48.9324 18.992 48.6284 20.864 48.2124 22.368C48.0204 23.136 47.7164 23.968 47.3004 24.864C46.8844 25.76 46.3884 26.56 45.8124 27.264C45.2364 27.968 44.6284 28.448 43.9884 28.704C44.6284 28.704 45.3004 28.512 46.0044 28.128C46.7404 27.712 47.4124 27.216 48.0204 26.64C48.6604 26.064 49.1404 25.552 49.4604 25.104C50.1644 24.112 50.8044 23.072 51.3804 21.984C51.9884 20.864 52.4364 20 52.7244 19.392C52.8204 19.232 52.9324 19.152 53.0604 19.152C53.2204 19.152 53.3644 19.248 53.4924 19.44C53.6204 19.632 53.6844 19.84 53.6844 20.064C53.6844 20.128 53.6684 20.192 53.6364 20.256C53.6364 20.32 53.6204 20.384 53.5884 20.448C53.0124 21.6 52.3724 22.768 51.6684 23.952C50.9964 25.104 50.2124 26.176 49.3164 27.168C48.4204 28.128 47.3964 28.896 46.2444 29.472C45.0924 30.048 43.7484 30.336 42.2124 30.336ZM39.0924 27.312C39.4444 27.312 39.7964 27.2 40.1484 26.976C40.5004 26.752 40.7884 26.4 41.0124 25.92C41.4924 24.864 41.9244 23.648 42.3084 22.272C42.6924 20.896 43.0284 19.536 43.3164 18.192C43.6044 16.816 43.8444 15.6 44.0364 14.544C44.2604 13.456 44.4204 12.672 44.5164 12.192C44.0364 12.768 43.4444 13.584 42.7404 14.64C42.0684 15.696 41.4124 16.752 40.7724 17.808C40.1644 18.864 39.7004 19.712 39.3804 20.352C39.4124 21.088 39.1244 21.744 38.5164 22.32C37.9084 22.896 37.3804 23.488 36.9324 24.096L36.9324 24.624C36.9324 24.752 36.9324 24.912 36.9324 25.104C36.9644 25.296 36.9964 25.472 37.0284 25.632C37.1884 26.144 37.4604 26.56 37.8444 26.88C38.2604 27.168 38.6764 27.312 39.0924 27.312ZM55.6363 30.384C54.4843 30.384 53.4443 30.064 52.5163 29.424C51.5883 28.752 51.1243 27.68 51.1243 26.208C51.1243 25.056 51.3482 23.648 51.7962 21.984C52.2442 20.32 52.8362 18.624 53.5722 16.896C54.3082 15.136 55.1082 13.552 55.9722 12.144L53.9082 12.144C53.7162 12.144 53.6202 12.064 53.6202 11.904C53.6202 11.776 53.7002 11.632 53.8602 11.472C54.0202 11.28 54.2122 11.152 54.4362 11.088C54.9482 10.928 55.6042 10.64 56.4042 10.224C57.2362 9.776 58.1002 9.264 58.9963 8.688C59.8922 8.112 60.7403 7.536 61.5403 6.96C62.3403 6.384 62.9803 5.888 63.4602 5.472C63.7482 5.216 64.0522 5.04 64.3722 4.944C64.7242 4.848 65.0603 4.8 65.3803 4.8C65.9243 4.8 66.3403 4.896 66.6283 5.088C66.9163 5.28 66.9163 5.472 66.6283 5.664C66.3722 5.824 66.0202 6.224 65.5722 6.864C65.1242 7.504 64.6603 8.208 64.1803 8.976C63.7323 9.744 63.3323 10.432 62.9803 11.04L66.6283 11.04C66.6923 11.04 66.7243 11.088 66.7243 11.184C66.7243 11.344 66.6603 11.552 66.5323 11.808C66.4043 12.032 66.2762 12.144 66.1482 12.144L62.3562 12.144C61.7163 13.264 61.0123 14.544 60.2442 15.984C59.4762 17.424 58.7402 18.896 58.0362 20.4C57.3643 21.872 56.8043 23.248 56.3563 24.528C55.9083 25.776 55.6843 26.768 55.6843 27.504C55.6843 28.304 56.0523 28.704 56.7883 28.704C57.5563 28.704 58.4203 28.336 59.3803 27.6C60.1803 26.928 60.9323 26.096 61.6363 25.104C62.3083 24.176 62.9003 23.216 63.4123 22.224C63.9563 21.232 64.4043 20.384 64.7563 19.68C64.8843 19.456 65.0603 19.344 65.2843 19.344C65.5083 19.344 65.6843 19.44 65.8122 19.632C65.9723 19.792 65.9883 20 65.8603 20.256C65.3803 21.216 64.7723 22.336 64.0363 23.616C63.3003 24.896 62.5163 26.064 61.6843 27.12C61.0123 27.952 60.3563 28.592 59.7163 29.04C59.1083 29.456 58.4523 29.776 57.7483 30C57.0763 30.256 56.3723 30.384 55.6363 30.384ZM70.2718 30.72C67.9358 30.72 66.2398 30.192 65.1838 29.136C64.1598 28.08 63.6478 26.688 63.6477 24.96C63.6477 23.648 63.9197 22.208 64.4637 20.64C64.8797 19.36 65.4397 18.064 66.1437 16.752C66.8477 15.408 67.6637 14.176 68.5917 13.056C69.5197 11.904 70.5437 10.992 71.6637 10.32C72.7838 9.616 73.9678 9.264 75.2157 9.264C76.8158 9.264 78.1118 9.52 79.1037 10.032C80.1277 10.512 80.6398 11.312 80.6398 12.432C80.6398 13.264 80.3038 14.304 79.6318 15.552C78.7358 17.28 77.4238 18.704 75.6958 19.824C73.9678 20.944 72.0318 21.584 69.8878 21.744C69.4078 23.056 69.1198 24.128 69.0238 24.96C68.9918 25.12 68.9758 25.28 68.9758 25.44C68.9758 25.568 68.9758 25.712 68.9758 25.872C68.9758 26.928 69.2158 27.696 69.6958 28.176C70.1758 28.624 70.7678 28.848 71.4718 28.848C72.7838 28.848 73.9358 28.512 74.9278 27.84C75.9198 27.168 76.7838 26.32 77.5198 25.296C78.2878 24.272 78.9438 23.248 79.4878 22.224C79.8078 21.648 80.0798 21.12 80.3038 20.64C80.5278 20.128 80.7038 19.76 80.8318 19.536C80.9918 19.28 81.1678 19.152 81.3598 19.152C81.5518 19.152 81.7278 19.264 81.8878 19.488C82.0478 19.68 82.0638 19.904 81.9358 20.16C81.5198 20.992 80.9438 22.096 80.2078 23.472C79.4718 24.848 78.6398 26.064 77.7118 27.12C76.6878 28.336 75.5838 29.248 74.3998 29.856C73.2478 30.432 71.8718 30.72 70.2718 30.72ZM70.5118 20.352C71.9518 19.808 73.2158 18.832 74.3038 17.424C75.4238 16.016 76.1757 14.464 76.5597 12.768C76.5918 12.608 76.6078 12.464 76.6078 12.336C76.6398 12.208 76.6557 12.08 76.6557 11.952C76.6557 11.312 76.4637 10.992 76.0798 10.992C75.7598 10.992 75.4238 11.216 75.0718 11.664C74.5598 12.272 74.0158 13.104 73.4397 14.16C72.8638 15.184 72.3518 16.192 71.9038 17.184C71.4558 18.176 71.1198 18.928 70.8957 19.44L70.5118 20.352ZM99.2818 30.384C97.6498 30.384 96.5458 29.936 95.9698 29.04C95.3938 28.144 95.1058 27.104 95.1058 25.92C95.1058 25.056 95.2018 24.192 95.3938 23.328C95.5858 22.464 95.7938 21.696 96.0178 21.024C96.2418 20.352 96.4018 19.888 96.4978 19.632C96.8818 18.48 97.2818 17.376 97.6977 16.32C98.1457 15.232 98.4817 14.48 98.7057 14.064C98.6097 14.224 98.2578 14.688 97.6498 15.456C97.0418 16.224 96.3218 17.184 95.4898 18.336C94.6898 19.456 93.8898 20.656 93.0897 21.936C92.2898 23.184 91.6178 24.4 91.0738 25.584C90.5618 26.736 90.3058 27.728 90.3058 28.56C90.3058 29.136 90.4338 29.552 90.6898 29.808C90.7858 29.904 90.8338 29.984 90.8338 30.048C90.8338 30.208 90.6578 30.256 90.3058 30.192C89.5698 30.064 88.8498 29.936 88.1458 29.808C87.4418 29.648 86.8498 29.344 86.3698 28.896C85.9218 28.416 85.6978 27.632 85.6978 26.544C85.6977 25.68 85.9217 24.64 86.3697 23.424C86.8177 22.176 87.3457 20.896 87.9537 19.584C88.5617 18.272 89.0897 17.056 89.5377 15.936C89.6337 15.68 89.7937 15.296 90.0177 14.784C90.2417 14.24 90.4657 13.68 90.6897 13.104C90.9457 12.496 91.1377 11.968 91.2657 11.52C91.3937 11.04 91.4257 10.72 91.3617 10.56C91.2977 10.432 91.2657 10.336 91.2657 10.272C91.2657 9.888 91.5217 9.696 92.0337 9.696C92.5457 9.696 93.0577 9.776 93.5697 9.936C94.1137 10.064 94.5937 10.288 95.0097 10.608C95.4577 10.928 95.8097 11.312 96.0657 11.76C96.3217 12.208 96.4498 12.704 96.4498 13.248C96.4498 13.6 96.3698 14.016 96.2098 14.496C96.1458 14.72 96.0018 15.024 95.7778 15.408C95.5858 15.76 95.3778 16.144 95.1538 16.56C94.9298 16.976 94.6898 17.408 94.4338 17.856C94.2098 18.304 94.1298 18.544 94.1937 18.576C94.9938 17.168 95.8578 15.856 96.7858 14.64C97.7458 13.392 98.6098 12.32 99.3778 11.424C100.178 10.528 100.706 9.872 100.962 9.456C101.218 9.264 101.634 9.168 102.21 9.168C102.882 9.168 103.57 9.376 104.274 9.792C104.978 10.208 105.33 10.96 105.33 12.048C105.33 12.944 105.01 14.032 104.37 15.312C102.994 17.936 101.938 20.304 101.202 22.416C100.466 24.496 100.098 26.032 100.098 27.024C100.098 27.728 100.29 28.08 100.674 28.08C101.122 28.08 101.634 27.792 102.21 27.216C102.786 26.64 103.33 25.952 103.842 25.152C104.546 24.128 105.186 23.04 105.762 21.888C106.37 20.736 106.786 19.936 107.01 19.488C107.106 19.296 107.25 19.2 107.442 19.2C107.634 19.2 107.81 19.312 107.97 19.536C108.162 19.728 108.194 19.952 108.066 20.208C107.842 20.656 107.506 21.28 107.058 22.08C106.642 22.88 106.162 23.744 105.618 24.672C105.074 25.568 104.482 26.432 103.842 27.264C103.138 28.224 102.434 28.992 101.73 29.568C101.026 30.112 100.21 30.384 99.2818 30.384ZM112.268 30.336C110.22 30.336 108.62 30 107.468 29.328C106.316 28.656 105.74 27.36 105.74 25.44C105.74 24.096 105.948 22.688 106.364 21.216C106.812 19.712 107.436 18.256 108.236 16.848C109.036 15.44 109.98 14.16 111.068 13.008C112.156 11.856 113.356 10.944 114.668 10.272C115.98 9.568 117.372 9.216 118.844 9.216C119.804 9.21599 120.716 9.29599 121.58 9.45599C122.444 9.616 123.148 9.984 123.692 10.56C124.236 11.104 124.508 11.968 124.508 13.152C124.508 14.4 124.172 16.016 123.5 18C122.828 19.984 121.916 21.92 120.764 23.808C120.7 24.064 120.668 24.32 120.668 24.576C120.668 24.928 120.732 25.28 120.86 25.632C121.02 25.984 121.292 26.16 121.676 26.16C122.188 26.16 122.716 25.808 123.26 25.104C123.836 24.304 124.428 23.344 125.036 22.224C125.644 21.104 126.108 20.192 126.428 19.488C126.492 19.296 126.636 19.2 126.86 19.2C127.084 19.2 127.276 19.296 127.436 19.488C127.628 19.68 127.644 19.904 127.484 20.16C127.228 20.64 126.892 21.312 126.476 22.176C126.06 23.008 125.58 23.856 125.036 24.72C124.492 25.584 123.9 26.272 123.26 26.784C122.78 27.168 122.268 27.36 121.724 27.36C121.084 27.36 120.604 27.216 120.284 26.928C119.964 26.608 119.708 26.16 119.516 25.584C118.492 26.96 117.356 28.096 116.108 28.992C114.86 29.888 113.58 30.336 112.268 30.336ZM111.356 28.848C111.708 28.848 112.188 28.384 112.796 27.456C113.404 26.528 114.06 25.344 114.764 23.904C115.468 22.432 116.156 20.944 116.828 19.44C116.956 19.184 117.164 18.72 117.452 18.048C117.74 17.344 118.044 16.576 118.364 15.744C118.684 14.88 118.956 14.048 119.18 13.248C119.404 12.448 119.516 11.808 119.516 11.328C119.516 10.784 119.356 10.512 119.036 10.512C118.748 10.512 118.38 10.8 117.932 11.376C117.484 11.92 116.988 12.64 116.444 13.536C115.9 14.432 115.372 15.392 114.86 16.416C114.348 17.44 113.9 18.4 113.516 19.296C113.132 20.192 112.732 21.2 112.316 22.32C111.9 23.44 111.548 24.512 111.26 25.536C111.004 26.528 110.876 27.328 110.876 27.936C110.876 28.544 111.036 28.848 111.356 28.848ZM127.978 30.24C126.73 30.24 125.85 29.888 125.338 29.184C124.858 28.48 124.618 27.632 124.618 26.64C124.617 25.168 124.841 23.76 125.289 22.416C125.737 21.04 126.265 19.664 126.873 18.288C127.513 16.912 128.105 15.52 128.649 14.112C128.905 13.376 129.129 12.672 129.321 12C129.513 11.296 129.609 10.736 129.609 10.32C129.609 10 129.561 9.776 129.465 9.64799L129.465 9.504C129.465 9.344 129.577 9.28 129.801 9.31199C130.057 9.376 130.297 9.44 130.521 9.504C130.777 9.53599 131.033 9.59999 131.289 9.696C132.538 10.112 133.386 10.672 133.834 11.376C134.314 12.048 134.554 12.752 134.554 13.488C134.554 13.616 134.538 13.744 134.506 13.872C134.506 14 134.49 14.128 134.458 14.256C134.393 14.544 134.186 15.136 133.834 16.032C133.482 16.896 133.082 17.824 132.634 18.816C132.122 20 131.593 21.168 131.049 22.32C130.506 23.44 130.01 24.688 129.562 26.064C129.53 26.16 129.514 26.304 129.514 26.496C129.514 26.944 129.706 27.168 130.09 27.168C130.442 27.168 130.778 27.008 131.098 26.688C131.578 26.208 132.154 25.472 132.826 24.48C133.498 23.456 134.33 22 135.322 20.112C135.962 18.928 136.458 17.856 136.809 16.896C137.193 15.904 137.513 14.928 137.77 13.968C137.866 13.52 137.945 13.088 138.01 12.672C138.074 12.224 138.106 11.84 138.106 11.52C138.106 11.136 138.058 10.88 137.962 10.752C137.898 10.624 137.882 10.512 137.913 10.416C137.946 10.32 138.042 10.288 138.202 10.32C139.034 10.384 139.834 10.592 140.602 10.944C141.402 11.264 142.057 11.712 142.57 12.288C143.082 12.864 143.338 13.584 143.338 14.448C143.338 14.768 143.29 15.104 143.194 15.456C143.098 15.808 142.89 16.416 142.57 17.28C142.25 18.144 141.866 19.12 141.418 20.208C141.002 21.296 140.602 22.368 140.218 23.424C139.834 24.48 139.546 25.392 139.354 26.16C139.322 26.288 139.29 26.4 139.258 26.496C139.258 26.56 139.258 26.624 139.258 26.688C139.258 27.072 139.386 27.264 139.642 27.264C139.834 27.264 140.106 27.12 140.458 26.832C140.938 26.384 141.546 25.632 142.282 24.576C143.05 23.488 143.93 22 144.922 20.112C145.658 18.736 146.234 17.376 146.65 16.032C147.098 14.688 147.322 13.504 147.322 12.48C147.322 11.328 147.018 10.464 146.41 9.88799C146.282 9.75999 146.218 9.696 146.218 9.696C146.218 9.632 146.41 9.58399 146.793 9.55199C146.954 9.55199 147.114 9.55199 147.273 9.55199C147.466 9.51999 147.626 9.50399 147.754 9.50399C149.45 9.50399 150.682 9.79199 151.45 10.368C152.25 10.912 152.65 11.568 152.65 12.336C152.65 12.496 152.618 12.704 152.554 12.96C152.362 13.792 151.978 14.816 151.402 16.032C150.858 17.216 150.202 18.464 149.434 19.776C148.889 20.704 148.506 21.52 148.282 22.224C148.09 22.896 147.994 23.536 147.994 24.144C147.994 25.36 148.33 25.968 149.002 25.968C149.546 25.968 150.09 25.616 150.634 24.912C151.178 24.272 151.722 23.44 152.266 22.416C152.842 21.392 153.322 20.48 153.705 19.68C153.802 19.456 153.978 19.344 154.234 19.344C154.426 19.344 154.602 19.44 154.762 19.632C154.922 19.792 154.938 20 154.81 20.256C154.65 20.576 154.474 20.928 154.282 21.312C154.122 21.664 153.93 22.032 153.706 22.416C153.386 22.992 153.002 23.664 152.554 24.432C152.106 25.2 151.562 25.888 150.922 26.496C150.314 27.072 149.578 27.36 148.714 27.36C148.01 27.36 147.482 27.072 147.13 26.496C146.778 25.92 146.602 25.28 146.602 24.576C146.602 24.448 146.602 24.32 146.602 24.192C146.602 24.064 146.618 23.936 146.65 23.808C145.818 24.96 144.874 26.032 143.818 27.024C142.794 27.984 141.738 28.768 140.65 29.376C139.594 29.952 138.57 30.24 137.578 30.24C136.426 30.24 135.594 29.872 135.082 29.136C134.602 28.368 134.362 27.44 134.362 26.352C134.362 26.064 134.378 25.776 134.41 25.488C134.474 25.168 134.522 24.864 134.554 24.576C133.466 26.208 132.378 27.568 131.29 28.656C130.202 29.712 129.098 30.24 127.978 30.24Z" fill="#F72D57"/>
</svg>
